<svg xmlns="http://www.w3.org/2000/svg" viewBox="0 0 128 128" role="img" aria-label="USDC">
  <title>USDC</title>
  <circle cx="64" cy="64" r="64" fill="#2775CA"/>
  <g fill="#ffffff">
    <path d="M64 30c-18.8 0-34 15.2-34 34s15.2 34 34 34 34-15.2 34-34S82.8 30 64 30zm0 10c13.3 0 24 10.7 24 24S77.3 88 64 88 40 77.3 40 64s10.7-24 24-24z"/>
    <path d="M69.9 52.7c-1.4-2-3.7-3.2-6.4-3.2-3.8 0-6.8 2.2-6.8 5.1 0 3.1 2.4 4.3 7.6 5.3 6.7 1.3 10.7 3.8 10.7 9.3 0 5.6-4.4 9.6-11.2 10.2V90h-6v-10.2c-4.5-.7-8.1-3-10.1-6.5l5.4-3.1c1.4 2.6 4.1 4.2 7.6 4.2 4 0 6.6-1.7 6.6-4.5 0-2.7-2.1-3.9-7.6-5-6.8-1.4-10.6-4.1-10.6-9.9 0-5.4 4.1-9.3 10.1-10V38h6v6.2c3.6.7 6.6 2.6 8.5 5.4l-5.4 3.1z"/>
    <path d="M27.5 51.5a43 43 0 0 0 0 25l-6.5 2.4a50 50 0 0 1 0-29.8l6.5 2.4zm79 0 6.5-2.4a50 50 0 0 1 0 29.8l-6.5-2.4a43 43 0 0 0 0-25z"/>
  </g>
</svg>

